<mxfile host="app.diagrams.net" modified="2024-03-14T09:09:39.874Z" agent="Mozilla/5.0 (Macintosh; Intel Mac OS X 10_15_7) AppleWebKit/537.36 (KHTML, like Gecko) Chrome/122.0.0.0 Safari/537.36" etag="ecTgVCoYUIe9bywNDlc7" version="24.0.6" type="github">
  <diagram name="PÃ¡gina-1" id="03XNwjDoIQuXHMxK98vS">
    <mxGraphModel dx="1247" dy="617" grid="1" gridSize="10" guides="1" tooltips="1" connect="1" arrows="1" fold="1" page="1" pageScale="1" pageWidth="827" pageHeight="1169" math="0" shadow="0">
      <root>
        <mxCell id="0" />
        <mxCell id="1" parent="0" />
        <mxCell id="ty9Nn-N-UKw-iAQZHd7g-3" style="edgeStyle=orthogonalEdgeStyle;rounded=0;orthogonalLoop=1;jettySize=auto;html=1;exitX=0.25;exitY=1;exitDx=0;exitDy=0;" edge="1" parent="1" source="ty9Nn-N-UKw-iAQZHd7g-1">
          <mxGeometry relative="1" as="geometry">
            <mxPoint x="230" y="100" as="targetPoint" />
          </mxGeometry>
        </mxCell>
        <mxCell id="ty9Nn-N-UKw-iAQZHd7g-4" style="edgeStyle=orthogonalEdgeStyle;rounded=0;orthogonalLoop=1;jettySize=auto;html=1;exitX=0.75;exitY=1;exitDx=0;exitDy=0;entryX=0.5;entryY=0;entryDx=0;entryDy=0;" edge="1" parent="1" source="ty9Nn-N-UKw-iAQZHd7g-1" target="ty9Nn-N-UKw-iAQZHd7g-22">
          <mxGeometry relative="1" as="geometry">
            <mxPoint x="580" y="100" as="targetPoint" />
          </mxGeometry>
        </mxCell>
        <mxCell id="ty9Nn-N-UKw-iAQZHd7g-1" value="MOSTRAR INVENTARIOS ELIMINADOS EN TRASHVC" style="rounded=0;whiteSpace=wrap;html=1;" vertex="1" parent="1">
          <mxGeometry x="325" y="10" width="177" height="50" as="geometry" />
        </mxCell>
        <mxCell id="ty9Nn-N-UKw-iAQZHd7g-7" style="edgeStyle=orthogonalEdgeStyle;rounded=0;orthogonalLoop=1;jettySize=auto;html=1;exitX=0.25;exitY=1;exitDx=0;exitDy=0;" edge="1" parent="1" source="ty9Nn-N-UKw-iAQZHd7g-5" target="ty9Nn-N-UKw-iAQZHd7g-8">
          <mxGeometry relative="1" as="geometry">
            <mxPoint x="80" y="179.99999999999994" as="targetPoint" />
          </mxGeometry>
        </mxCell>
        <mxCell id="ty9Nn-N-UKw-iAQZHd7g-11" style="edgeStyle=orthogonalEdgeStyle;rounded=0;orthogonalLoop=1;jettySize=auto;html=1;exitX=0.75;exitY=1;exitDx=0;exitDy=0;" edge="1" parent="1" source="ty9Nn-N-UKw-iAQZHd7g-5">
          <mxGeometry relative="1" as="geometry">
            <mxPoint x="320" y="180" as="targetPoint" />
          </mxGeometry>
        </mxCell>
        <mxCell id="ty9Nn-N-UKw-iAQZHd7g-5" value="OBTENER INVENTARIOS QUE ELIMINE" style="rounded=0;whiteSpace=wrap;html=1;" vertex="1" parent="1">
          <mxGeometry x="100" y="110" width="250" height="30" as="geometry" />
        </mxCell>
        <mxCell id="ty9Nn-N-UKw-iAQZHd7g-10" value="" style="edgeStyle=orthogonalEdgeStyle;rounded=0;orthogonalLoop=1;jettySize=auto;html=1;" edge="1" parent="1" source="ty9Nn-N-UKw-iAQZHd7g-8" target="ty9Nn-N-UKw-iAQZHd7g-9">
          <mxGeometry relative="1" as="geometry" />
        </mxCell>
        <mxCell id="ty9Nn-N-UKw-iAQZHd7g-8" value="Crear propiedad &quot;isDeleted&quot; en el modelo de datos" style="rounded=0;whiteSpace=wrap;html=1;" vertex="1" parent="1">
          <mxGeometry x="20" y="179.99999999999994" width="120" height="60" as="geometry" />
        </mxCell>
        <mxCell id="ty9Nn-N-UKw-iAQZHd7g-9" value="Cambiar mappeos, viewModel, etc (donde se queje)" style="rounded=0;whiteSpace=wrap;html=1;" vertex="1" parent="1">
          <mxGeometry x="20" y="279.99999999999994" width="120" height="60" as="geometry" />
        </mxCell>
        <mxCell id="ty9Nn-N-UKw-iAQZHd7g-15" style="edgeStyle=orthogonalEdgeStyle;rounded=0;orthogonalLoop=1;jettySize=auto;html=1;exitX=0.153;exitY=1.004;exitDx=0;exitDy=0;exitPerimeter=0;" edge="1" parent="1" source="ty9Nn-N-UKw-iAQZHd7g-14" target="ty9Nn-N-UKw-iAQZHd7g-16">
          <mxGeometry relative="1" as="geometry">
            <mxPoint x="240" y="330" as="targetPoint" />
            <mxPoint x="280" y="280" as="sourcePoint" />
            <Array as="points">
              <mxPoint x="260" y="240" />
              <mxPoint x="260" y="360" />
              <mxPoint x="110" y="360" />
            </Array>
          </mxGeometry>
        </mxCell>
        <mxCell id="ty9Nn-N-UKw-iAQZHd7g-18" style="edgeStyle=orthogonalEdgeStyle;rounded=0;orthogonalLoop=1;jettySize=auto;html=1;exitX=0.5;exitY=1;exitDx=0;exitDy=0;entryX=0.5;entryY=0;entryDx=0;entryDy=0;" edge="1" parent="1" source="ty9Nn-N-UKw-iAQZHd7g-14" target="ty9Nn-N-UKw-iAQZHd7g-19">
          <mxGeometry relative="1" as="geometry">
            <mxPoint x="369.9999999999998" y="330" as="targetPoint" />
            <Array as="points">
              <mxPoint x="320" y="315" />
              <mxPoint x="310" y="315" />
              <mxPoint x="310" y="370" />
              <mxPoint x="290" y="370" />
            </Array>
          </mxGeometry>
        </mxCell>
        <mxCell id="ty9Nn-N-UKw-iAQZHd7g-20" style="edgeStyle=orthogonalEdgeStyle;rounded=0;orthogonalLoop=1;jettySize=auto;html=1;exitX=1;exitY=1;exitDx=0;exitDy=0;" edge="1" parent="1" source="ty9Nn-N-UKw-iAQZHd7g-14" target="ty9Nn-N-UKw-iAQZHd7g-21">
          <mxGeometry relative="1" as="geometry">
            <mxPoint x="519.9999999999998" y="320" as="targetPoint" />
          </mxGeometry>
        </mxCell>
        <mxCell id="ty9Nn-N-UKw-iAQZHd7g-14" value="Cambiar logica de la funcion &quot;removeInventory&quot;" style="rounded=0;whiteSpace=wrap;html=1;" vertex="1" parent="1">
          <mxGeometry x="260" y="179.99999999999994" width="120" height="60" as="geometry" />
        </mxCell>
        <mxCell id="ty9Nn-N-UKw-iAQZHd7g-16" value="&lt;sub&gt;&lt;font style=&quot;font-size: 9px;&quot;&gt;Tener una funcion &quot;removeInventory&quot; para cambiar la propiedad &quot;isDeleted&quot; a &quot;true&quot;&lt;/font&gt;&lt;/sub&gt;" style="whiteSpace=wrap;html=1;strokeColor=default;" vertex="1" parent="1">
          <mxGeometry x="50" y="390" width="120" height="80" as="geometry" />
        </mxCell>
        <mxCell id="ty9Nn-N-UKw-iAQZHd7g-19" value="&lt;font style=&quot;font-size: 9px;&quot;&gt;Tener una funcion para eliminar permanentemente (en base de datos) el/los inventario/s que quiera desde TrashVC&lt;/font&gt;" style="whiteSpace=wrap;html=1;" vertex="1" parent="1">
          <mxGeometry x="220" y="390" width="140" height="80" as="geometry" />
        </mxCell>
        <mxCell id="ty9Nn-N-UKw-iAQZHd7g-21" value="&lt;font style=&quot;font-size: 8px;&quot;&gt;Tener una funcion para recuperar los inventaerios de TrashVC a InventoryListVC (tendria que cambiar de nuevo la propiedad &quot;isDeleted&quot; a &quot;false&quot;&lt;/font&gt;" style="whiteSpace=wrap;html=1;" vertex="1" parent="1">
          <mxGeometry x="390" y="390" width="140" height="80" as="geometry" />
        </mxCell>
        <mxCell id="ty9Nn-N-UKw-iAQZHd7g-23" style="edgeStyle=orthogonalEdgeStyle;rounded=0;orthogonalLoop=1;jettySize=auto;html=1;exitX=0.5;exitY=1;exitDx=0;exitDy=0;" edge="1" parent="1" source="ty9Nn-N-UKw-iAQZHd7g-22">
          <mxGeometry relative="1" as="geometry">
            <mxPoint x="636" y="180" as="targetPoint" />
          </mxGeometry>
        </mxCell>
        <mxCell id="ty9Nn-N-UKw-iAQZHd7g-22" value="MOSTRAR INVENTARIOS EN LA TABLA DE TRASHVC" style="whiteSpace=wrap;html=1;" vertex="1" parent="1">
          <mxGeometry x="470" y="110" width="332" height="30" as="geometry" />
        </mxCell>
        <mxCell id="ty9Nn-N-UKw-iAQZHd7g-24" value="Iterar por todos los inventarios de base de datos y mostrar solo los que tienen &quot;isDeleted&quot; a &quot;true&quot;" style="whiteSpace=wrap;html=1;" vertex="1" parent="1">
          <mxGeometry x="486" y="180" width="300" height="60" as="geometry" />
        </mxCell>
      </root>
    </mxGraphModel>
  </diagram>
</mxfile>
